<svg xmlns="http://www.w3.org/2000/svg" width="72" height="72" fill="none"><path fill="#FD6F00" stroke="#FD6F00" stroke-width=".5" d="M27.805 60.607H67.96V44.228H27.805v16.38ZM4.015 34.335h40.159V17.957H4.014v16.378ZM49.567 8.099h7.482V4.033h-7.482V8.1ZM14.97 8.084h31.274V4.022H14.97v4.062Zm56.284 54.637-.025.05c-.205.431-.49.726-.851.907-.266.133-.563.2-.88.222l-.323.01c-2.769-.035-5.536-.013-8.31-.013h-.55c-.003 1.8-.03 3.523.015 5.247v.001l-.006.327c-.02.319-.089.615-.222.882-.18.359-.468.646-.873.869l-.057.03H12.83l-.057-.03c-.41-.223-.693-.514-.869-.874-.173-.356-.234-.762-.233-1.204l.012-7.738c.007-7.738.003-15.475.003-23.214v-.572c-3.06 0-6.03.002-8.999 0-.629-.001-1.134-.126-1.474-.47-.34-.345-.463-.854-.463-1.488V16.6l.007-.225c.028-.51.16-.926.456-1.22.337-.337.834-.462 1.45-.463h9.023v-.551c0-2.82.01-5.638.002-8.455l-.017-2.818c-.004-.442.056-.85.23-1.206.177-.361.461-.652.872-.874l.056-.03h46.025V.579l.37.201.148.087c.332.21.568.473.722.79.13.267.197.562.221.88l.011.323c-.027 5.56-.014 11.116-.014 16.677 0 .165.008.373-.011.57-.075.81-.66 1.425-1.433 1.505l-.157.01a1.587 1.587 0 0 1-1.61-1.396l-.014-.17c-.032-.734-.012-1.478-.012-2.198v-6.434H14.972v3.263h30.364c.736 0 1.3.097 1.663.457.364.36.462.92.462 1.65v18.729c0 .713-.105 1.265-.462 1.626-.358.362-.906.47-1.614.47H14.972v30.357h42.072v-4.083h-30.3c-.79 0-1.38-.085-1.75-.461-.37-.375-.453-.972-.453-1.773V43c0-.685.114-1.222.474-1.576.358-.353.9-.466 1.593-.466H57.08v-.497c0-2.643-.003-5.287.002-7.929 0-.442.095-.827.298-1.134.205-.309.508-.517.884-.628l.198-.047c.46-.078.899.05 1.233.334.38.321.612.828.615 1.421l.006 3.966-.002 3.964v.552h1.71c2.373 0 4.739.025 7.105-.015l.324.008c.317.022.613.09.882.22.362.175.656.457.886.86l.032.057v20.63Z"/><path fill="#FD6F00" stroke="#FD6F00" d="M58.797 24.292a1.87 1.87 0 0 1 1.76 1.81l-.006.191c-.077.945-.89 1.72-1.856 1.72-.933 0-1.73-.728-1.847-1.637l-.014-.183a1.87 1.87 0 0 1 1.77-1.902l.193.001Z"/><path fill="#000" d="M13.71 21.499c1.525 0 3.048-.006 4.573.002 1.078.005 1.579.51 1.582 1.596.008 2.026.008 4.05 0 6.074-.003 1.112-.513 1.62-1.642 1.621-3.002.005-6.005.005-9.01 0-1.13-.002-1.645-.507-1.65-1.613a961.49 961.49 0 0 1 0-6.074c.005-1.116.503-1.603 1.643-1.606 1.501-.006 3.003 0 4.504 0Zm3.384 6.53v-3.754h-6.747v3.754h6.748ZM32.185 24.231h-6.552c-.182 0-.365.007-.546-.003-.822-.055-1.399-.637-1.386-1.391.01-.764.588-1.322 1.43-1.333 1.251-.016 2.502-.005 3.753-.005h9.622c1.502 0 2.154.42 2.137 1.38-.016.931-.672 1.352-2.111 1.352h-6.347ZM32.205 28.063c2.343 0 4.687-.009 7.028.006.835.005 1.41.583 1.41 1.35 0 .73-.555 1.302-1.338 1.37-.181.014-.364.007-.547.007h-13.17c-.137 0-.274.003-.41 0-.874-.035-1.475-.595-1.477-1.371 0-.79.59-1.353 1.474-1.356 2.343-.011 4.685-.004 7.028-.002l.002-.004ZM37.48 57.064c-1.525 0-3.048.007-4.574-.002-1.035-.005-1.547-.52-1.552-1.559-.01-2.047-.008-4.094 0-6.143.004-1.068.524-1.588 1.602-1.59 3.026-.007 6.05-.007 9.077 0 1.113.002 1.619.518 1.622 1.64a960.77 960.77 0 0 1 0 6.073c-.003 1.074-.515 1.574-1.602 1.579-1.525.007-3.048 0-4.573 0v.002Zm-3.363-2.784h6.747v-3.74h-6.747v3.74ZM55.955 50.503c-2.274 0-4.55.004-6.824 0-1.012-.002-1.622-.505-1.64-1.332-.018-.843.628-1.398 1.655-1.398 4.55-.004 9.1-.004 13.647 0 1.001 0 1.622.52 1.64 1.343.019.85-.613 1.385-1.653 1.387-2.274.004-4.55 0-6.823 0h-.002ZM55.97 57.066c-2.275 0-4.55.002-6.824 0-1.045 0-1.672-.533-1.655-1.386.016-.816.645-1.345 1.638-1.345 4.572-.004 9.144-.004 13.717 0 .895 0 1.476.454 1.578 1.192.09.638-.321 1.296-.957 1.473-.236.066-.495.064-.743.064-2.252.004-4.504.002-6.756.002h.001Z"/></svg>