<svg xmlns="http://www.w3.org/2000/svg" width="72" height="82" fill="none"><g clip-path="url(#a)"><path fill="#FD6F00" d="M48.32 82H23.68c-1.008-.602-1.334-1.213-1.106-2.052.212-.769.853-1.147 1.962-1.149h3.203l1.637-8.9h-1.06c-6.317 0-12.633.004-18.95-.007-.744 0-1.503-.019-2.225-.168-4.31-.882-7.131-4.397-7.135-8.88C-.005 49.747-.001 38.65.004 27.551c0-5.526 3.76-9.285 9.283-9.293h2.264v-1.053c0-4.055-.011-8.11.004-12.165.008-2.437 1.336-4.205 3.608-4.882.122-.036.235-.105.353-.158h40.962c3.202 1.303 3.968 2.46 3.968 6V18.259c.887 0 1.654-.002 2.424 0 5.322.023 9.116 3.81 9.12 9.133.01 11.123.007 22.249-.006 33.372 0 .767-.064 1.553-.24 2.298-.974 4.164-4.422 6.818-8.872 6.83-6.396.016-12.794.003-19.19.003H42.62c.56 3.037 1.1 5.954 1.642 8.9 1.255 0 2.426-.023 3.596.007 1.043.026 1.688.784 1.603 1.777-.062.74-.578 1.095-1.144 1.416l.002.006ZM14.8 11.51V58.3h42.386V11.51H14.8Zm53.927 50.146H3.214c.1.431.156.77.259 1.1.765 2.464 2.866 3.935 5.664 3.937 17.913.005 35.826.002 53.74 0 .238 0 .478-.008.717-.027 2.728-.201 4.803-2.202 5.133-5.01Zm-57.238-3.331V29.849H3.246v28.476h8.243Zm57.253-.007V29.842H60.49v28.476h8.252ZM14.774 8.178h42.412c.03-.13.051-.183.051-.234.004-.854.01-1.706.009-2.56-.002-1.668-.524-2.18-2.215-2.18H16.978c-.214 0-.428-.01-.64.006-.852.061-1.495.591-1.547 1.443-.068 1.162-.017 2.332-.017 3.526Zm26.224 70.585c-.526-2.858-1.03-5.634-1.567-8.403-.034-.18-.325-.438-.498-.44-2.075-.03-4.151-.02-6.293-.02a16101 16101 0 0 1-1.642 8.865H41l-.002-.002ZM11.491 26.56v-5.043c-4.923-.462-8.196 1.565-8.174 5.043h8.174Zm48.991-.006h8.225c-.124-2.32-1.85-4.45-4.155-4.89-1.313-.25-2.683-.192-4.068-.276v5.166h-.002Z"/><path fill="#000" d="M16.769 38.502c0-4.188-.002-8.376 0-12.563.002-2.676 1.485-4.164 4.145-4.168 2.291-.005 4.582-.009 6.874 0 2.36.01 3.946 1.516 3.952 3.882.026 8.588.026 17.177 0 25.766-.006 2.368-1.575 3.87-3.946 3.884-2.37.015-4.743.02-7.114 0-2.364-.02-3.9-1.555-3.907-3.918-.015-4.295-.004-8.59-.004-12.883Zm11.786.1c0-4.185-.006-8.373.007-12.558.002-.692-.13-1.1-.966-1.085-2.236.04-4.477.032-6.712.004-.706-.009-.926.275-.924.952.013 8.427.015 16.853 0 25.277 0 .711.284.93.953.923 2.157-.024 4.316-.007 6.473-.009 1.101 0 1.167-.068 1.17-1.183.002-4.106 0-8.212 0-12.319v-.002ZM44.788 21.77c2.131 0 4.265-.008 6.396.003 2.308.012 3.877 1.529 3.907 3.841.037 2.693.035 5.388 0 8.083-.028 2.28-1.53 3.829-3.82 3.852-4.343.047-8.687.05-13.03 0-2.35-.025-3.835-1.638-3.841-4.004-.007-2.588-.007-5.174 0-7.762.006-2.443 1.556-4.002 3.99-4.012 2.132-.009 4.265 0 6.396 0h.002ZM37.6 29.34c.703-.574 1.258-1.058 1.846-1.503 1.439-1.09 3.239-1.074 4.654.039.502.395 1.02.783 1.462 1.24.58.598 1.052.524 1.62-.017 1.249-1.191 2.691-1.411 4.277-.743.116.05.24.075.44.137 0-.989.005-1.92 0-2.849-.003-.514-.305-.677-.782-.675-4.234.007-8.469.007-12.703 0-.577 0-.82.25-.812.82.015 1.12.004 2.238.004 3.552h-.007Zm7.118 5.023c2.075 0 4.153.02 6.228-.02.308-.006.855-.258.87-.433.052-.606.417-1.32-.312-1.815-1.067-.724-1.933-.817-2.599-.277-1.633 1.33-3.471 1.33-5.094-.002-.453-.372-.917-.733-1.334-1.143-.491-.482-.906-.504-1.436-.028-.93.835-1.928 1.595-2.864 2.426-.244.216-.366.573-.543.863.337.143.673.406 1.015.412 2.022.039 4.047.02 6.069.02v-.003ZM44.745 55.307c-2.105 0-4.21.009-6.314-.002-2.499-.013-4.025-1.552-4.031-4.05-.005-2.587-.009-5.175 0-7.76.008-2.354 1.545-3.943 3.881-3.953 4.316-.024 8.634-.024 12.95 0 2.279.012 3.824 1.533 3.856 3.807.038 2.72.038 5.441 0 8.162-.034 2.272-1.586 3.773-3.869 3.794-2.159.022-4.316.004-6.475.007l.002-.005Zm5.01-3.2h1.07c.996-.01 1.075-.084 1.075-1.113.004-2.428-.015-4.858.01-7.286.01-.72-.252-.989-.983-.985a1080.5 1080.5 0 0 1-12.316 0c-.761-.004-1.04.26-1.026 1.027.034 2.215.012 4.43.012 6.646 0 1.81.024 1.832 1.837 1.7.074-.007.147-.043.3-.09.063-1.687-.226-3.47 1.123-4.89 1.366-1.44 3.104-1.341 4.842-1.296 1.022.025 1.915.386 2.693 1.06 1.603 1.395 1.366 3.296 1.364 5.226Zm-3.203-.03c0-.759.021-1.446-.007-2.132-.025-.606-.41-.982-.985-.907-.87.115-2.078-.583-2.512.68-.24.7-.043 1.55-.043 2.358h3.549-.002Z"/><path fill="#FD6F00" d="M39.12 18.828c-4.665 0-9.33.004-13.993-.002-1.225 0-1.911-.56-1.948-1.533-.03-.835.507-1.502 1.334-1.621.314-.045.637-.043.958-.043h27.348c.319 0 .643 0 .956.047.763.117 1.282.72 1.31 1.482.03.807-.466 1.463-1.257 1.608-.338.062-.688.06-1.035.06-4.557.004-9.116.002-13.674 0v.002ZM16.777 17.224c0-.888.676-1.571 1.56-1.58a1.596 1.596 0 0 1 1.621 1.54c.026.884-.725 1.638-1.62 1.627a1.57 1.57 0 0 1-1.56-1.589v.002ZM53.056 4.151c.372 0 .748-.028 1.118.007.793.07 1.381.683 1.443 1.46.058.735-.402 1.51-1.154 1.602-.966.115-1.967.122-2.933.006-.797-.096-1.225-.854-1.152-1.668.068-.777.654-1.347 1.48-1.405.397-.027.799-.004 1.198-.004v.004-.002Z"/><path fill="#000" d="M24.21 35.07c-.612 0-1.223.026-1.832-.007-.9-.049-1.565-.749-1.56-1.597a1.59 1.59 0 0 1 1.573-1.582 66.251 66.251 0 0 1 3.743 0c.917.028 1.551.722 1.547 1.593-.004.87-.643 1.54-1.56 1.584-.635.032-1.274.007-1.911.007v.002ZM24.314 42.604c.558 0 1.116-.013 1.674.002 1.026.03 1.704.685 1.693 1.616-.01.897-.675 1.555-1.654 1.574-1.195.024-2.39.026-3.585 0-.95-.023-1.64-.737-1.627-1.612.013-.878.706-1.533 1.668-1.578.053-.002.106 0 .16 0h1.674l-.003-.002ZM24.306 26.526c.613 0 1.227-.028 1.838.006.902.052 1.514.684 1.537 1.527.024.848-.545 1.561-1.443 1.608a41.27 41.27 0 0 1-3.914.009 1.54 1.54 0 0 1-1.507-1.638c.041-.835.667-1.44 1.57-1.512.053-.004.106-.006.16-.006h1.759v.006ZM24.21 40.428c-.614 0-1.23.038-1.839-.009-.944-.075-1.57-.747-1.556-1.603.013-.861.663-1.527 1.603-1.553a65.966 65.966 0 0 1 3.68 0c.944.026 1.577.688 1.585 1.561.009.848-.57 1.474-1.475 1.595-.079.01-.158.024-.24.024H24.21v-.015ZM24.285 47.985c.613 0 1.227-.026 1.838.006.906.05 1.524.667 1.556 1.508.036.878-.556 1.593-1.5 1.638a41.74 41.74 0 0 1-3.835.002c-.939-.043-1.559-.767-1.529-1.62.03-.861.678-1.49 1.63-1.53.61-.028 1.226-.004 1.837-.002l.003-.002Z"/></g><defs><clipPath id="a"><path fill="#fff" d="M0 0h72v82H0z"/></clipPath></defs></svg>