<svg xmlns="http://www.w3.org/2000/svg" width="49" height="85" fill="none"><path fill="#FD6F00" stroke="#FD6F00" d="M41.302 1.028c2.186 0 3.997.664 5.264 1.93 1.267 1.265 1.932 3.076 1.933 5.26V77.35c0 2.156-.67 3.955-1.933 5.215-1.263 1.26-3.064 1.93-5.224 1.93H7.657c-2.157 0-3.959-.672-5.221-1.933-1.262-1.261-1.934-3.06-1.935-5.216V43.937l-.001.002V8.215c0-2.18.666-3.991 1.934-5.256C3.702 1.692 5.515 1.027 7.7 1.027h33.602ZM3.52 77.234c0 1.464.391 2.507 1.072 3.184.681.678 1.73 1.068 3.201 1.068H41.39c.296 0 .55.006.807-.01l.17-.016c1.743-.2 3.187-1.606 3.245-3.25l.027-.999c.045-2.167.004-4.338-.002-6.566H3.52v6.589ZM7.122 4.045h-.004C5.4 4.11 3.92 5.245 3.684 6.82c-.103.687-.115 1.397-.099 2.14.013.57.043 1.184.055 1.793 1.773.002 3.538.008 5.307-.004l.296.01c.3.025.606.097.87.268.383.248.594.65.639 1.16l.005.178a1.29 1.29 0 0 1-.513 1.017c-.349.267-.818.375-1.316.38h-5.36v53.774h42.018V13.76H17.062c-.045 0-.1.005-.176.012-.067.006-.159.015-.245.02-.148.007-.44.016-.685-.15l-.002-.002a4.328 4.328 0 0 1-.605-.484c-.187-.186-.393-.444-.469-.764v-.002c-.103-.44.02-.842.296-1.136.26-.276.627-.428.993-.482l.248-.022c.25-.013.501.001.667.001H45.65V8.21c0-1.402-.394-2.427-1.071-3.101-.678-.675-1.708-1.067-3.118-1.067H7.688c-.21 0-.386-.005-.566.003Z"/><path fill="#000" d="M24.61 16.614h15.157c1.202 0 1.492.286 1.492 1.473v27.569c0 1.178-.295 1.464-1.5 1.464H9.44c-1.256 0-1.535-.275-1.535-1.516V18.121c0-1.236.277-1.507 1.544-1.507h15.16Zm-1.52 15.254L10 19.989v23.763l13.09-11.884Zm16.124-11.912-13.13 11.912 13.13 11.913V19.953v.003Zm-27.648-1.292L24.592 30.48c4.355-3.954 8.626-7.831 13.012-11.816H11.566Zm13.021 14.59L11.58 45.066h26.023L24.587 33.254Z"/><path fill="#FD6F00" d="M24.5 58.185H9.76c-.278 0-.638.085-.82-.053-.325-.244-.743-.626-.743-.953 0-.324.42-.708.742-.952.185-.138.543-.051.824-.051H39.41c.225 0 .453-.016.673.011.585.07.936.418.936.995 0 .574-.353.925-.936.994-.25.03-.504.011-.758.011H24.5v-.002ZM24.531 63.214H9.792c-.281 0-.634.09-.823-.045-.331-.234-.793-.628-.77-.923.025-.357.459-.728.792-1.001.153-.125.488-.038.74-.038h29.732c.225 0 .518-.08.66.029.342.266.787.586.868.952.12.54-.294.93-.877 1.012-.248.036-.505.016-.756.016H24.533l-.002-.002ZM16.834 52.989c-2.44 0-4.877.002-7.316 0-.89 0-1.373-.355-1.38-.992-.009-.642.477-1.015 1.355-1.015 4.906-.005 9.812-.002 14.718 0 .919 0 1.367.333 1.376.99.009.648-.466 1.015-1.35 1.017-2.467.004-4.934 0-7.403 0Z"/><path fill="#000" d="M24.587 79.27c-2.052.018-3.826-1.732-3.832-3.781-.005-2.072 1.688-3.789 3.778-3.834 2.091-.042 3.882 1.724 3.871 3.82-.009 2.065-1.733 3.777-3.819 3.793l.002.002Zm1.8-3.797c.01-.948-.794-1.772-1.75-1.802-.986-.029-1.846.796-1.855 1.782-.009.94.797 1.772 1.751 1.806.97.033 1.848-.81 1.857-1.786h-.002Z"/></svg>