<svg xmlns="http://www.w3.org/2000/svg" width="84" height="72" fill="none"><mask id="a" width="84" height="72" x="-.001" y="0" fill="#000" maskUnits="userSpaceOnUse"><path fill="#fff" d="M-.001 0h84v72h-84z"/><path d="M83 7.822v56.356c-.043.102-.107.197-.129.304-.823 4.051-3.652 6.49-7.57 6.516-1.414.009-2.828 0-4.244 0-20.739 0-41.477.002-62.218 0-4.572 0-7.83-3.332-7.835-8.05C.995 44.977.995 27.014 1.02 9.05c0-.917.15-1.87.421-2.739C2.487 2.972 5.274 1 8.843 1h66.3c.214 0 .428 0 .64.01 2.95.16 5.105 1.654 6.433 4.426.356.742.527 1.584.782 2.381l.002.005Zm-67.36 59.74v-9.93c0-2.573-.017-5.148.007-7.722.023-2.514 1.515-4.07 3.868-4.076 1.735-.004 3.47-.002 5.204 0 2.57.002 4.005 1.523 4.007 4.257.004 5.489 0 10.975 0 16.464v1.002h4.795V66.6c0-2.886-.005-5.771.004-8.655 0-.42.028-.849.092-1.263.22-1.432 1.063-2.415 2.187-3.187a54459.85 54459.85 0 0 0-4.072-10.372c-1.235-3.144-.805-5.21 1.502-7.56 2.875-2.929 5.582-6.004 7.366-9.854.28-.605.76-.928 1.415-.928.686 0 1.142.35 1.472.973.55 1.032 1.012 2.152 1.72 3.046a165.662 165.662 0 0 0 5.993 7.16c1.696 1.91 2.22 4.177 1.292 6.62-.477 1.256-.978 2.505-1.466 3.757-.93 2.396-1.859 4.793-2.8 7.213 1.745 1.1 2.306 2.743 2.265 4.766-.057 2.77-.014 5.543-.014 8.316v.905h4.486v-.994c0-4.074-.043-8.147.034-12.22.017-.846.283-1.86.783-2.482.608-.756.739-1.476.71-2.365-.053-1.786.685-3.083 2.183-3.922.214-.12.421-.483.432-.74.047-1.13.01-2.262.024-3.393.013-1.123.629-1.843 1.562-1.86.96-.019 1.617.724 1.634 1.88a74.042 74.042 0 0 1-.006 3.309c-.013.46.117.697.524.892 1.03.493 1.733 1.353 1.968 2.521.148.736.073 1.519.142 2.277.025.283.1.638.28.813.94.91 1.273 2.03 1.266 3.345-.02 4.017-.006 8.032-.006 12.05v.96c2.959 0 5.809.004 8.66 0 2.909-.005 4.642-1.832 4.642-4.896.002-12.673 0-25.345 0-38.02v-.891H4.205V62.6c0 .283-.007.566.012.849.135 2.046 1.674 3.974 3.567 4.078 2.576.143 5.163.036 7.856.036v-.002ZM4.216 20.295h75.569c0-3.968 0-7.872-.002-11.774 0-.14-.028-.28-.054-.419-.432-2.333-2.118-3.707-4.578-3.707H8.847c-.213 0-.427 0-.64.011-2.09.102-3.925 1.895-3.97 4.117-.077 3.9-.022 7.804-.022 11.774v-.002ZM40.4 52.948c0-2.741-.006-5.453.005-8.162.004-1.165.65-1.887 1.628-1.87.941.017 1.557.725 1.566 1.852.013 2.035.004 4.072.004 6.107v2.22c.6-.2 1.233.315 1.573-.575 1.44-3.766 2.916-7.519 4.37-11.278.422-1.089.208-2.04-.596-2.852-.676-.683-1.376-1.344-1.992-2.084-1.688-2.028-3.336-4.092-5.02-6.166-.008.012-.104.102-.175.213-1.865 2.917-4.116 5.477-6.53 7.888-1.059 1.057-1.221 1.847-.667 3.261 1.38 3.52 2.798 7.021 4.123 10.563.342.914.793 1.18 1.713.887l-.002-.004Zm6.879 14.63v-9.563c0-1.265-.274-1.568-1.447-1.57a1444.37 1444.37 0 0 0-7.676 0c-1.14.002-1.43.31-1.431 1.5-.005 2.967-.003 5.932 0 8.9 0 .242.03.482.047.735h10.505l.002-.002Zm-21.755-.011V50.178c0-.5.04-.971-.665-.962-1.787.024-3.576-.012-5.36.033-.22.005-.588.324-.618.537-.084.627-.03 1.274-.03 1.969.757 0 1.395-.01 2.032 0 1.11.018 1.83.672 1.842 1.661.015 1.021-.727 1.71-1.876 1.727-.635.01-1.27 0-1.936 0v2.094c.762 0 1.453-.025 2.144.006.982.043 1.66.75 1.668 1.687.01.966-.7 1.67-1.726 1.695-.685.016-1.372.002-2.088.002v2.132c.704 0 1.34-.011 1.977.002 1.12.025 1.829.675 1.84 1.666.012 1.021-.721 1.698-1.881 1.72-.633.012-1.269 0-1.943 0v1.41h6.62v.01Zm37.767-.005c0-4.459-.004-8.811.007-13.163 0-.521-.255-.598-.66-.596-1.227.014-2.456.043-3.681-.011-.662-.03-.805.23-.8.88.023 4.072.01 8.146.014 12.218 0 .217.032.434.052.672h5.068Zm-1.465-17.19c-.114-.588-.06-1.378-.351-1.566-.392-.254-1.17-.235-1.554.034-.28.197-.19.984-.27 1.532h2.175Z"/></mask><path fill="#FD6F00" d="M83 7.822v56.356c-.043.102-.107.197-.129.304-.823 4.051-3.652 6.49-7.57 6.516-1.414.009-2.828 0-4.244 0-20.739 0-41.477.002-62.218 0-4.572 0-7.83-3.332-7.835-8.05C.995 44.977.995 27.014 1.02 9.05c0-.917.15-1.87.421-2.739C2.487 2.972 5.274 1 8.843 1h66.3c.214 0 .428 0 .64.01 2.95.16 5.105 1.654 6.433 4.426.356.742.527 1.584.782 2.381l.002.005Zm-67.36 59.74v-9.93c0-2.573-.017-5.148.007-7.722.023-2.514 1.515-4.07 3.868-4.076 1.735-.004 3.47-.002 5.204 0 2.57.002 4.005 1.523 4.007 4.257.004 5.489 0 10.975 0 16.464v1.002h4.795V66.6c0-2.886-.005-5.771.004-8.655 0-.42.028-.849.092-1.263.22-1.432 1.063-2.415 2.187-3.187a54459.85 54459.85 0 0 0-4.072-10.372c-1.235-3.144-.805-5.21 1.502-7.56 2.875-2.929 5.582-6.004 7.366-9.854.28-.605.76-.928 1.415-.928.686 0 1.142.35 1.472.973.55 1.032 1.012 2.152 1.72 3.046a165.662 165.662 0 0 0 5.993 7.16c1.696 1.91 2.22 4.177 1.292 6.62-.477 1.256-.978 2.505-1.466 3.757-.93 2.396-1.859 4.793-2.8 7.213 1.745 1.1 2.306 2.743 2.265 4.766-.057 2.77-.014 5.543-.014 8.316v.905h4.486v-.994c0-4.074-.043-8.147.034-12.22.017-.846.283-1.86.783-2.482.608-.756.739-1.476.71-2.365-.053-1.786.685-3.083 2.183-3.922.214-.12.421-.483.432-.74.047-1.13.01-2.262.024-3.393.013-1.123.629-1.843 1.562-1.86.96-.019 1.617.724 1.634 1.88a74.042 74.042 0 0 1-.006 3.309c-.013.46.117.697.524.892 1.03.493 1.733 1.353 1.968 2.521.148.736.073 1.519.142 2.277.025.283.1.638.28.813.94.91 1.273 2.03 1.266 3.345-.02 4.017-.006 8.032-.006 12.05v.96c2.959 0 5.809.004 8.66 0 2.909-.005 4.642-1.832 4.642-4.896.002-12.673 0-25.345 0-38.02v-.891H4.205V62.6c0 .283-.007.566.012.849.135 2.046 1.674 3.974 3.567 4.078 2.576.143 5.163.036 7.856.036v-.002ZM4.216 20.295h75.569c0-3.968 0-7.872-.002-11.774 0-.14-.028-.28-.054-.419-.432-2.333-2.118-3.707-4.578-3.707H8.847c-.213 0-.427 0-.64.011-2.09.102-3.925 1.895-3.97 4.117-.077 3.9-.022 7.804-.022 11.774v-.002ZM40.4 52.948c0-2.741-.006-5.453.005-8.162.004-1.165.65-1.887 1.628-1.87.941.017 1.557.725 1.566 1.852.013 2.035.004 4.072.004 6.107v2.22c.6-.2 1.233.315 1.573-.575 1.44-3.766 2.916-7.519 4.37-11.278.422-1.089.208-2.04-.596-2.852-.676-.683-1.376-1.344-1.992-2.084-1.688-2.028-3.336-4.092-5.02-6.166-.008.012-.104.102-.175.213-1.865 2.917-4.116 5.477-6.53 7.888-1.059 1.057-1.221 1.847-.667 3.261 1.38 3.52 2.798 7.021 4.123 10.563.342.914.793 1.18 1.713.887l-.002-.004Zm6.879 14.63v-9.563c0-1.265-.274-1.568-1.447-1.57a1444.37 1444.37 0 0 0-7.676 0c-1.14.002-1.43.31-1.431 1.5-.005 2.967-.003 5.932 0 8.9 0 .242.03.482.047.735h10.505l.002-.002Zm-21.755-.011V50.178c0-.5.04-.971-.665-.962-1.787.024-3.576-.012-5.36.033-.22.005-.588.324-.618.537-.084.627-.03 1.274-.03 1.969.757 0 1.395-.01 2.032 0 1.11.018 1.83.672 1.842 1.661.015 1.021-.727 1.71-1.876 1.727-.635.01-1.27 0-1.936 0v2.094c.762 0 1.453-.025 2.144.006.982.043 1.66.75 1.668 1.687.01.966-.7 1.67-1.726 1.695-.685.016-1.372.002-2.088.002v2.132c.704 0 1.34-.011 1.977.002 1.12.025 1.829.675 1.84 1.666.012 1.021-.721 1.698-1.881 1.72-.633.012-1.269 0-1.943 0v1.41h6.62v.01Zm37.767-.005c0-4.459-.004-8.811.007-13.163 0-.521-.255-.598-.66-.596-1.227.014-2.456.043-3.681-.011-.662-.03-.805.23-.8.88.023 4.072.01 8.146.014 12.218 0 .217.032.434.052.672h5.068Zm-1.465-17.19c-.114-.588-.06-1.378-.351-1.566-.392-.254-1.17-.235-1.554.034-.28.197-.19.984-.27 1.532h2.175Z"/><path stroke="#FD6F00" d="M83 7.822v56.356c-.043.102-.107.197-.129.304-.823 4.051-3.652 6.49-7.57 6.516-1.414.009-2.828 0-4.244 0-20.739 0-41.477.002-62.218 0-4.572 0-7.83-3.332-7.835-8.05C.995 44.977.995 27.014 1.02 9.05c0-.917.15-1.87.421-2.739C2.487 2.972 5.274 1 8.843 1h66.3c.214 0 .428 0 .64.01 2.95.16 5.105 1.654 6.433 4.426.356.742.527 1.584.782 2.381l.002.005Zm-67.36 59.74v-9.93c0-2.573-.017-5.148.007-7.722.023-2.514 1.515-4.07 3.868-4.076 1.735-.004 3.47-.002 5.204 0 2.57.002 4.005 1.523 4.007 4.257.004 5.489 0 10.975 0 16.464v1.002h4.795V66.6c0-2.886-.005-5.771.004-8.655 0-.42.028-.849.092-1.263.22-1.432 1.063-2.415 2.187-3.187a54459.85 54459.85 0 0 0-4.072-10.372c-1.235-3.144-.805-5.21 1.502-7.56 2.875-2.929 5.582-6.004 7.366-9.854.28-.605.76-.928 1.415-.928.686 0 1.142.35 1.472.973.55 1.032 1.012 2.152 1.72 3.046a165.662 165.662 0 0 0 5.993 7.16c1.696 1.91 2.22 4.177 1.292 6.62-.477 1.256-.978 2.505-1.466 3.757-.93 2.396-1.859 4.793-2.8 7.213 1.745 1.1 2.306 2.743 2.265 4.766-.057 2.77-.014 5.543-.014 8.316v.905h4.486v-.994c0-4.074-.043-8.147.034-12.22.017-.846.283-1.86.783-2.482.608-.756.739-1.476.71-2.365-.053-1.786.685-3.083 2.183-3.922.214-.12.421-.483.432-.74.047-1.13.01-2.262.024-3.393.013-1.123.629-1.843 1.562-1.86.96-.019 1.617.724 1.634 1.88a74.042 74.042 0 0 1-.006 3.309c-.013.46.117.697.524.892 1.03.493 1.733 1.353 1.968 2.521.148.736.073 1.519.142 2.277.025.283.1.638.28.813.94.91 1.273 2.03 1.266 3.345-.02 4.017-.006 8.032-.006 12.05v.96c2.959 0 5.809.004 8.66 0 2.909-.005 4.642-1.832 4.642-4.896.002-12.673 0-25.345 0-38.02v-.891H4.205V62.6c0 .283-.007.566.012.849.135 2.046 1.674 3.974 3.567 4.078 2.576.143 5.163.036 7.856.036v-.002ZM4.216 20.295h75.569c0-3.968 0-7.872-.002-11.774 0-.14-.028-.28-.054-.419-.432-2.333-2.118-3.707-4.578-3.707H8.847c-.213 0-.427 0-.64.011-2.09.102-3.925 1.895-3.97 4.117-.077 3.9-.022 7.804-.022 11.774v-.002ZM40.4 52.948c0-2.741-.006-5.453.005-8.162.004-1.165.65-1.887 1.628-1.87.941.017 1.557.725 1.566 1.852.013 2.035.004 4.072.004 6.107v2.22c.6-.2 1.233.315 1.573-.575 1.44-3.766 2.916-7.519 4.37-11.278.422-1.089.208-2.04-.596-2.852-.676-.683-1.376-1.344-1.992-2.084-1.688-2.028-3.336-4.092-5.02-6.166-.008.012-.104.102-.175.213-1.865 2.917-4.116 5.477-6.53 7.888-1.059 1.057-1.221 1.847-.667 3.261 1.38 3.52 2.798 7.021 4.123 10.563.342.914.793 1.18 1.713.887l-.002-.004Zm6.879 14.63v-9.563c0-1.265-.274-1.568-1.447-1.57a1444.37 1444.37 0 0 0-7.676 0c-1.14.002-1.43.31-1.431 1.5-.005 2.967-.003 5.932 0 8.9 0 .242.03.482.047.735h10.505l.002-.002Zm-21.755-.011V50.178c0-.5.04-.971-.665-.962-1.787.024-3.576-.012-5.36.033-.22.005-.588.324-.618.537-.084.627-.03 1.274-.03 1.969.757 0 1.395-.01 2.032 0 1.11.018 1.83.672 1.842 1.661.015 1.021-.727 1.71-1.876 1.727-.635.01-1.27 0-1.936 0v2.094c.762 0 1.453-.025 2.144.006.982.043 1.66.75 1.668 1.687.01.966-.7 1.67-1.726 1.695-.685.016-1.372.002-2.088.002v2.132c.704 0 1.34-.011 1.977.002 1.12.025 1.829.675 1.84 1.666.012 1.021-.721 1.698-1.881 1.72-.633.012-1.269 0-1.943 0v1.41h6.62v.01Zm37.767-.005c0-4.459-.004-8.811.007-13.163 0-.521-.255-.598-.66-.596-1.227.014-2.456.043-3.681-.011-.662-.03-.805.23-.8.88.023 4.072.01 8.146.014 12.218 0 .217.032.434.052.672h5.068Zm-1.465-17.19c-.114-.588-.06-1.378-.351-1.566-.392-.254-1.17-.235-1.554.034-.28.197-.19.984-.27 1.532h2.175Z" mask="url(#a)"/><path fill="#000" d="M25.429 7.77c2.676-.005 4.85 2.281 4.857 5.108.006 2.809-2.183 5.128-4.844 5.133-2.66.005-4.853-2.308-4.857-5.12-.004-2.822 2.167-5.117 4.844-5.121Zm.023 3.399c-.896-.009-1.636.74-1.658 1.677-.023.955.753 1.78 1.665 1.766.88-.014 1.62-.806 1.62-1.732 0-.935-.735-1.704-1.627-1.713v.002ZM17.206 12.91c-.01 2.84-2.165 5.108-4.848 5.099-2.67-.01-4.81-2.306-4.803-5.151.009-2.84 2.167-5.104 4.853-5.09 2.689.013 4.81 2.283 4.798 5.142Zm-6.446-.046c-.008.965.702 1.736 1.603 1.748.911.011 1.626-.736 1.636-1.707.011-.978-.678-1.724-1.598-1.734-.92-.009-1.632.725-1.639 1.696l-.002-.003ZM38.471 7.767c2.69-.009 4.834 2.25 4.838 5.1.006 2.847-2.133 5.133-4.81 5.14-2.674.006-4.837-2.275-4.842-5.109-.004-2.85 2.127-5.124 4.814-5.13Zm1.63 5.136c.01-.978-.68-1.725-1.6-1.734-.92-.009-1.63.727-1.639 1.695-.006.964.702 1.736 1.605 1.745.912.01 1.626-.738 1.635-1.708v.002Z"/><path fill="#FD6F00" d="M41.961 40.717c-.852-.025-1.564-.813-1.555-1.72.008-.956.757-1.698 1.673-1.655.87.04 1.55.817 1.517 1.736-.032.9-.792 1.661-1.635 1.636v.003Z"/></svg>