<svg xmlns="http://www.w3.org/2000/svg" xmlns:xlink="http://www.w3.org/1999/xlink">
    <symbol id="facebook" viewBox="0 0 33 33">
        <path d="M32.475 16.238C32.475 7.27 25.205 0 16.238 0 7.27 0 0 7.27 0 16.238c0 8.104 5.938 14.822 13.7 16.04V20.931H9.579v-4.693H13.7V12.66c0-4.07 2.424-6.317 6.133-6.317 1.776 0 3.634.317 3.634.317v3.996h-2.047c-2.017 0-2.646 1.252-2.646 2.537v3.045h4.503l-.72 4.693h-3.783v11.347c7.762-1.218 13.7-7.936 13.7-16.04Z"/>
    </symbol>
    <symbol id="instagram" viewBox="0 0 33 33">
        <path d="M16.254 2.924c4.339 0 4.852.019 6.559.095 1.585.07 2.442.336 3.013.558.754.292 1.3.647 1.864 1.212.571.57.92 1.11 1.212 1.865.222.57.488 1.433.558 3.012.076 1.713.095 2.227.095 6.559 0 4.338-.019 4.852-.095 6.558-.07 1.586-.336 2.442-.558 3.013a5.022 5.022 0 0 1-1.212 1.865c-.57.57-1.11.92-1.864 1.211-.571.222-1.434.489-3.013.559-1.713.076-2.227.095-6.559.095-4.338 0-4.852-.02-6.558-.095-1.586-.07-2.442-.337-3.013-.559a5.022 5.022 0 0 1-1.865-1.211c-.57-.57-.92-1.11-1.211-1.865-.222-.57-.489-1.433-.559-3.013-.076-1.712-.095-2.226-.095-6.558 0-4.339.02-4.852.095-6.559.07-1.585.337-2.442.559-3.013.291-.754.647-1.3 1.211-1.864.57-.571 1.11-.92 1.865-1.212.57-.222 1.433-.488 3.013-.558 1.706-.076 2.22-.095 6.558-.095Zm0-2.924c-4.408 0-4.96.019-6.692.095C7.837.171 6.652.45 5.624.85c-1.072.418-1.98.97-2.88 1.877-.907.901-1.459 1.808-1.878 2.874-.4 1.033-.678 2.213-.754 3.938-.076 1.738-.095 2.29-.095 6.699 0 4.408.019 4.96.095 6.691.076 1.725.355 2.912.754 3.94.42 1.071.97 1.978 1.878 2.879.9.9 1.808 1.459 2.873 1.87 1.034.4 2.214.68 3.94.756 1.73.076 2.283.095 6.69.095 4.41 0 4.96-.02 6.692-.095 1.726-.077 2.912-.356 3.94-.755a7.936 7.936 0 0 0 2.873-1.871c.9-.901 1.459-1.808 1.87-2.874.4-1.034.68-2.213.756-3.938.076-1.732.095-2.284.095-6.692s-.02-4.96-.095-6.692c-.077-1.725-.356-2.911-.755-3.939a7.606 7.606 0 0 0-1.859-2.886 7.937 7.937 0 0 0-2.873-1.87c-1.034-.4-2.214-.68-3.939-.756C21.214.02 20.662 0 16.254 0Z"/><path d="M16.254 7.897a8.343 8.343 0 0 0-8.34 8.34 8.343 8.343 0 0 0 8.34 8.341 8.343 8.343 0 0 0 8.341-8.34 8.343 8.343 0 0 0-8.34-8.341Zm0 13.75a5.411 5.411 0 1 1 .002-10.822 5.411 5.411 0 0 1-.002 10.823ZM26.872 7.567a1.948 1.948 0 1 1-3.895-.001 1.948 1.948 0 0 1 3.895 0Z"/>
    </symbol>
    <symbol id="linkedin" viewBox="0 0 33 33">
        <path d="M30.596 0H2.922C1.597 0 .525 1.046.525 2.34v27.788c0 1.294 1.072 2.347 2.397 2.347h27.674c1.326 0 2.404-1.053 2.404-2.34V2.34C33 1.046 31.922 0 30.596 0ZM10.16 27.674H5.339V12.172h4.82v15.502ZM7.75 10.06a2.792 2.792 0 0 1-2.798-2.791c0-1.542 1.25-2.791 2.797-2.791a2.79 2.79 0 0 1 0 5.582Zm20.448 17.614h-4.814v-7.536c0-1.795-.031-4.11-2.505-4.11-2.506 0-2.886 1.96-2.886 3.984v7.662h-4.808V12.172h4.618v2.118h.063c.64-1.218 2.214-2.505 4.554-2.505 4.878 0 5.778 3.21 5.778 7.383v8.506Z"/>
    </symbol>
    <symbol id="twitter" viewBox="0 0 33 33">
        <path d="M10.725 29.43c12.251 0 18.955-10.153 18.955-18.954 0-.286-.007-.578-.02-.863a13.531 13.531 0 0 0 3.323-3.45c-1.214.54-2.503.894-3.824 1.047a6.699 6.699 0 0 0 2.93-3.684 13.394 13.394 0 0 1-4.23 1.616 6.672 6.672 0 0 0-11.357 6.076A18.923 18.923 0 0 1 2.772 4.26a6.67 6.67 0 0 0 2.061 8.891 6.671 6.671 0 0 1-3.018-.83v.082a6.66 6.66 0 0 0 5.346 6.533 6.623 6.623 0 0 1-3.006.114 6.676 6.676 0 0 0 6.22 4.63 13.362 13.362 0 0 1-9.867 2.757 18.9 18.9 0 0 0 10.217 2.992Z"/>
    </symbol>
    <symbol id="quotes" viewBox="0 0 15 10">
        <path d="M5.816 9.112h-5.6L3.8.536h3.68L5.816 9.112Zm7.264 0H7.512L11.096.536h3.648L13.08 9.112Z"/>
    </symbol>
    <symbol id="mu" viewBox="0 0 67 67">
        <path fill-rule="evenodd" d="M33.5 67C52.002 67 67 52.002 67 33.5c0-2.213-.215-4.377-.624-6.47l-.305.554C62.399 34.28 58.775 41 55.967 48.128c-.504 1.296-1.008 2.592-1.344 3.936-.072.288-.12.552-.144.84-.024.528-.168.648-.696.504-.96-.264-1.776-1.296-1.896-2.424-.12-1.224.12-2.4.432-3.576 1.368-5.28 3.504-10.272 5.904-15.144.737-1.53 1.53-3.031 2.327-4.537.24-.455.481-.91.72-1.367.097-.192.193-.384.217-.648-.144.144-.288.288-.408.432l-.001.001c-4.32 5.136-8.64 10.271-12.96 15.383a50.208 50.208 0 0 1-3.791 4.032c-.864.816-1.752 1.632-3.096 1.08-1.536-.6-2.712-1.56-2.976-3.312-.264-1.68.024-3.336.456-4.944 1.224-4.488 3.192-8.664 5.328-12.768 1.464-2.808 3.072-5.544 5.064-8.016 1.152-1.416 1.824-1.536 3.384-.576.065.046.13.09.195.133.174.117.344.231.5.371.913.792 1.033 1.296.457 2.352-.58 1.067-1.168 2.127-1.756 3.186-1.384 2.493-2.765 4.982-4.028 7.542-1.776 3.672-3.432 7.416-4.728 11.28a6.488 6.488 0 0 0-.183.617l-.033.127a25.837 25.837 0 0 0 2.808-2.328c3.494-3.387 6.698-7.006 9.907-10.631l1.085-1.225c1.868-2.108 3.664-4.277 5.46-6.445.626-.756 1.252-1.512 1.88-2.265C58.802 8.1 47.097 0 33.5 0 14.998 0 0 14.998 0 33.5c0 .642.018 1.28.054 1.913a330.058 330.058 0 0 1 7.674-16.277c.36-.696.744-1.344 1.2-1.968.408-.552.888-.672 1.536-.48.6.192 1.128.528 1.608.936.624.528.84 1.152.552 1.968-.906 2.853-2.11 5.577-3.312 8.295l-.216.489c-.624 1.416-1.248 2.832-1.752 4.296.232-.288.461-.579.69-.87a54.59 54.59 0 0 1 1.398-1.722A174.92 174.92 0 0 1 20.52 18.056c.247-.23.507-.433.77-.64.096-.073.19-.148.286-.224 1.056-.84 2.136-.816 3.264-.192 1.872 1.008 2.4 2.16 1.992 4.224-.316 1.537-.93 2.967-1.542 4.391l-.114.265c-.881 2.027-1.843 3.993-2.812 5.972l-.26.532a2.31 2.31 0 0 1-.048.08c-.094.15-.205.328-.144.592.112-.133.22-.257.324-.376.14-.16.272-.312.396-.464.686-.783 1.37-1.57 2.052-2.355 2.856-3.285 5.712-6.57 8.772-9.669 1.2-1.2 2.448-2.328 3.816-3.312 1.104-.792 2.136-.816 3.24-.096 1.152.744 1.8 1.68 1.56 3.12-.432 2.616-1.464 5.016-2.712 7.32-1.24 2.285-2.56 4.529-3.883 6.775-.955 1.623-1.91 3.248-2.837 4.889-2.352 4.152-4.68 8.304-6.6 12.672-.603 1.343-1.064 2.733-1.524 4.12-.108.322-.215.646-.324.968-.192.504-.24 1.032-.216 1.56 0 .768-.288.96-1.008.696-1.392-.528-2.256-2.16-1.848-3.72.816-3.168 1.824-6.288 3.096-9.312 2.832-6.768 6.192-13.248 9.888-19.584.768-1.344 1.488-2.712 2.064-4.152-1.416 1.176-2.712 2.472-3.96 3.792-4.044 4.374-7.89 8.918-11.734 13.458-1.175 1.388-2.35 2.776-3.53 4.158-.247.305-.415.654-.583 1.004-.11.229-.22.458-.353.676-.192.336-.396.672-.6 1.008-.204.336-.408.672-.6 1.008-.288.528-.696.624-1.224.408-1.512-.648-1.752-1.344-1.56-2.52.36-1.92 1.128-3.696 1.896-5.448 1.466-3.36 3.068-6.652 4.67-9.944.916-1.881 1.832-3.762 2.722-5.656.36-.744.672-1.536.936-2.376l-.298.268c-.187.165-.37.327-.542.5-5.184 4.968-9.792 10.44-13.944 16.296-1.662 2.327-3.395 4.584-5.245 6.747C7.05 58.081 19.233 67 33.5 67Z" clip-rule="evenodd"/>
    </symbol>
    <symbol id="mumair" viewBox="0 0 185 37">
        <path  d="M.984 36V2.4h6.432L21.72 26.112h-3.408L32.376 2.4h6.384l.096 33.6H31.56l-.048-22.416h1.344L21.624 32.448H18.12L6.648 13.584H8.28V36H.984Z"/>
         <path d="M58.012 36.24c-2.144 0-4.016-.4-5.616-1.2-1.6-.8-2.848-2-3.744-3.6-.864-1.6-1.296-3.6-1.296-6V10.8h3.408v14.256c0 2.688.656 4.72 1.968 6.096 1.344 1.344 3.216 2.016 5.616 2.016 1.76 0 3.28-.352 4.56-1.056 1.312-.736 2.304-1.792 2.976-3.168.704-1.376 1.056-3.024 1.056-4.944V10.8h3.408V36h-3.264v-6.912l.528 1.248c-.8 1.856-2.048 3.312-3.744 4.368-1.664 1.024-3.616 1.536-5.856 1.536Zm53.322-25.68c2.048 0 3.824.4 5.328 1.2 1.536.768 2.72 1.952 3.552 3.552.864 1.6 1.296 3.616 1.296 6.048V36h-3.408V21.696c0-2.656-.64-4.656-1.92-6-1.248-1.376-3.024-2.064-5.328-2.064-1.728 0-3.232.368-4.512 1.104-1.248.704-2.224 1.744-2.928 3.12-.672 1.344-1.008 2.976-1.008 4.896V36h-3.408V21.696c0-2.656-.64-4.656-1.92-6-1.28-1.376-3.072-2.064-5.376-2.064-1.696 0-3.184.368-4.464 1.104-1.28.704-2.272 1.744-2.976 3.12-.672 1.344-1.008 2.976-1.008 4.896V36h-3.408V10.8h3.264v6.816l-.528-1.2a8.911 8.911 0 0 1 3.696-4.272c1.728-1.056 3.76-1.584 6.096-1.584 2.464 0 4.56.624 6.288 1.872 1.728 1.216 2.848 3.056 3.36 5.52l-1.344-.528c.736-2.048 2.032-3.696 3.888-4.944 1.888-1.28 4.144-1.92 6.768-1.92ZM146.544 36v-5.568l-.144-.912v-9.312c0-2.144-.608-3.792-1.824-4.944-1.184-1.152-2.96-1.728-5.328-1.728-1.632 0-3.184.272-4.656.816-1.472.544-2.72 1.264-3.744 2.16l-1.536-2.544c1.28-1.088 2.816-1.92 4.608-2.496a17.508 17.508 0 0 1 5.664-.912c3.264 0 5.776.816 7.536 2.448 1.792 1.6 2.688 4.048 2.688 7.344V36h-3.264Zm-8.688.24c-1.888 0-3.536-.304-4.944-.912-1.376-.64-2.432-1.504-3.168-2.592-.736-1.12-1.104-2.4-1.104-3.84 0-1.312.304-2.496.912-3.552.64-1.088 1.664-1.952 3.072-2.592 1.44-.672 3.36-1.008 5.76-1.008h8.688v2.544h-8.592c-2.432 0-4.128.432-5.088 1.296-.928.864-1.392 1.936-1.392 3.216 0 1.44.56 2.592 1.68 3.456 1.12.864 2.688 1.296 4.704 1.296 1.92 0 3.568-.432 4.944-1.296 1.408-.896 2.432-2.176 3.072-3.84l.768 2.352c-.64 1.664-1.76 2.992-3.36 3.984-1.568.992-3.552 1.488-5.952 1.488Zm21.209-.24V10.8h3.408V36h-3.408Zm1.728-30.768c-.704 0-1.296-.24-1.776-.72a2.357 2.357 0 0 1-.72-1.728c0-.672.24-1.232.72-1.68.48-.48 1.072-.72 1.776-.72s1.296.224 1.776.672c.48.448.72 1.008.72 1.68 0 .704-.24 1.296-.72 1.776-.448.48-1.04.72-1.776.72ZM171.955 36V10.8h3.264v6.864l-.336-1.2c.704-1.92 1.888-3.376 3.552-4.368 1.664-1.024 3.728-1.536 6.192-1.536v3.312h-.384a1.578 1.578 0 0 0-.384-.048c-2.656 0-4.736.816-6.24 2.448-1.504 1.6-2.256 3.888-2.256 6.864V36h-3.408Z"/>
    </symbol>
    <symbol id="light" viewBox="0 0 24 24">
        <path d="M11 1a1 1 0 1 1 2 0v2a1 1 0 1 1-2 0V1Z"/>
        <path d="M18 12a6 6 0 1 1-12 0 6 6 0 0 1 12 0Zm-9.938 0a3.938 3.938 0 1 0 7.876 0 3.938 3.938 0 0 0-7.876 0Z"/>
        <path d="M20.485 3.515a1 1 0 0 0-1.414 0l-1.414 1.414a1 1 0 0 0 1.414 1.414l1.414-1.414a1 1 0 0 0 0-1.414ZM1 13a1 1 0 1 1 0-2h2a1 1 0 1 1 0 2H1ZM3.515 3.515a1 1 0 0 0 0 1.414l1.414 1.414A1 1 0 0 0 6.343 4.93L4.93 3.515a1 1 0 0 0-1.414 0ZM11 21a1 1 0 1 1 2 0v2a1 1 0 1 1-2 0v-2ZM6.343 17.657a1 1 0 0 0-1.414 0L3.515 19.07a1 1 0 1 0 1.414 1.414l1.414-1.414a1 1 0 0 0 0-1.414ZM21 13a1 1 0 1 1 0-2h2a1 1 0 1 1 0 2h-2ZM17.657 17.657a1 1 0 0 0 0 1.414l1.414 1.414a1 1 0 0 0 1.414-1.414l-1.414-1.414a1 1 0 0 0-1.414 0Z"/> 

    </symbol>
    <symbol id="dark" viewBox="0 0 35 35">
       <path d="M18.44 34.68a18.22 18.22 0 0 1-2.94-.24 18.18 18.18 0 0 1-15-20.86A18.06 18.06 0 0 1 9.59.63a2.42 2.42 0 0 1 2.61.16 2.39 2.39 0 0 1 1 2.41l-1.3-.1 1.23.22A15.66 15.66 0 0 0 23.34 21a15.82 15.82 0 0 0 8.47.53A2.44 2.44 0 0 1 34.47 25a18.18 18.18 0 0 1-16.03 9.68ZM10.67 2.89a15.67 15.67 0 0 0-5 22.77A15.66 15.66 0 0 0 32.18 24a18.49 18.49 0 0 1-9.65-.64A18.18 18.18 0 0 1 10.67 2.89Z"/>
    </symbol>
    <symbol id="arrow" viewBox="0 0 32 32">
        <path fill-rule="evenodd" d="M16 30C8.268 30 2 23.73 2 16S8.268 2 16 2s14 6.27 14 14-6.268 14-14 14Zm0-30C7.163 0 0 7.16 0 16s7.163 16 16 16 16-7.16 16-16S24.837 0 16 0Zm.879 9.46A.962.962 0 0 0 16 9.21a.962.962 0 0 0-.879.25l-5.656 5.66a1.006 1.006 0 0 0 0 1.42 1 1 0 0 0 1.414 0L15 12.41V23a1.001 1.001 0 0 0 2 0V12.41l4.121 4.13a1 1 0 0 0 1.414 0c.391-.4.391-1.03 0-1.42l-5.656-5.66Z"/>
    </symbol>
</svg>